<svg xmlns="http://www.w3.org/2000/svg" xmlns:xlink="http://www.w3.org/1999/xlink" width="500" zoomAndPan="magnify" viewBox="0 0 375 374.999991" height="500" preserveAspectRatio="xMidYMid meet" version="1.0"><defs><clipPath id="e19ec4c968"><path d="M 40.082031 132 L 202 132 L 202 303 L 40.082031 303 Z M 40.082031 132 " clip-rule="nonzero"/></clipPath><clipPath id="9ff591071b"><path d="M 223 208.167969 L 334.605469 208.167969 L 334.605469 287.859375 L 223 287.859375 Z M 223 208.167969 " clip-rule="nonzero"/></clipPath><clipPath id="486ccb7365"><path d="M 227.449219 219 L 334.605469 219 L 334.605469 290.160156 L 227.449219 290.160156 Z M 227.449219 219 " clip-rule="nonzero"/></clipPath><clipPath id="36fe8c7548"><path d="M 196.039062 282.496094 L 237 282.496094 L 237 304.105469 L 196.039062 304.105469 Z M 196.039062 282.496094 " clip-rule="nonzero"/></clipPath></defs><path fill="#e5d5c8" d="M 324.066406 180.964844 C 286.785156 108.425781 268.136719 72.15625 268.136719 72.15625 C 254.878906 100.34375 197.738281 103.199219 175.050781 138.054688 C 200.589844 235.625 213.359375 284.410156 213.359375 284.410156 C 248.4375 226.0625 303.5625 224.632812 324.066406 180.964844 " fill-opacity="1" fill-rule="evenodd"/><path fill="#4f1f15" d="M 269.160156 71.632812 L 325.089844 180.441406 C 325.246094 180.746094 325.261719 181.113281 325.105469 181.449219 C 315.132812 202.695312 297.203125 214.007812 277.332031 226.546875 C 256.03125 239.992188 232.457031 254.863281 214.34375 285 C 214.191406 285.246094 213.949219 285.441406 213.644531 285.519531 C 213.035156 285.679688 212.410156 285.3125 212.25 284.695312 C 199.8125 237.183594 188.230469 184.785156 173.941406 138.339844 C 173.863281 138.042969 173.910156 137.710938 174.089844 137.429688 C 185.902344 119.285156 206.742188 109.757812 226.074219 100.914062 C 244.097656 92.671875 260.785156 85.042969 267.082031 71.710938 C 267.183594 71.46875 267.367188 71.265625 267.613281 71.136719 C 268.175781 70.847656 268.867188 71.070312 269.160156 71.632812 Z M 322.789062 180.984375 L 268.136719 74.65625 C 260.871094 87.523438 244.570312 94.976562 227.027344 102.996094 C 208.136719 111.636719 187.789062 120.941406 176.289062 138.261719 L 213.789062 281.523438 C 231.980469 252.457031 255.132812 237.84375 276.109375 224.609375 C 295.527344 212.355469 313.054688 201.292969 322.789062 180.984375 " fill-opacity="1" fill-rule="evenodd"/><path fill="#e5d5c8" d="M 175.050781 138.054688 C 200.589844 235.625 213.359375 284.410156 213.359375 284.410156 C 189.679688 246.394531 128.925781 258.175781 100.347656 244.945312 C 100.347656 244.945312 88.601562 199.484375 65.105469 108.550781 C 99.601562 130.148438 140.789062 107.144531 175.050781 138.054688 " fill-opacity="1" fill-rule="evenodd"/><path fill="#4f1f15" d="M 210.667969 278.644531 L 174.03125 138.683594 C 155.660156 122.269531 135.148438 121.503906 114.792969 120.746094 C 98.40625 120.140625 82.113281 119.53125 66.910156 110.957031 L 101.320312 244.128906 C 111.03125 248.46875 124.507812 250.011719 138.933594 251.667969 C 164.964844 254.648438 194.019531 257.984375 210.667969 278.644531 Z M 176.175781 137.832031 L 214.46875 284.121094 C 214.625 284.734375 214.257812 285.363281 213.644531 285.519531 C 213.152344 285.648438 212.640625 285.429688 212.386719 285.015625 C 197.214844 260.652344 166.21875 257.101562 138.675781 253.945312 C 123.816406 252.246094 109.949219 250.65625 99.871094 245.988281 C 99.527344 245.832031 99.296875 245.523438 99.226562 245.175781 L 63.996094 108.839844 C 63.839844 108.230469 64.207031 107.605469 64.816406 107.445312 C 65.15625 107.359375 65.496094 107.429688 65.761719 107.613281 C 81.109375 117.203125 97.9375 117.828125 114.871094 118.457031 C 135.742188 119.230469 156.769531 120.015625 175.820312 137.199219 C 176.011719 137.375 176.128906 137.597656 176.175781 137.832031 " fill-opacity="1" fill-rule="evenodd"/><path fill="#e5d5c8" d="M 213.011719 283.082031 L 214.21875 284.796875 C 212.910156 285.121094 211.632812 285.550781 210.402344 286.082031 L 210.402344 286.078125 C 204.898438 278.128906 197.421875 272.824219 188.921875 269.148438 C 160.78125 256.992188 125.890625 262.664062 97.476562 249.160156 C 97.476562 249.160156 84.324219 204.144531 58.019531 114.109375 L 67.195312 116.640625 L 100.347656 244.945312 C 128.925781 258.175781 189.679688 246.394531 213.359375 284.410156 L 213.011719 283.082031 " fill-opacity="1" fill-rule="evenodd"/><path fill="#4f1f15" d="M 210.8125 284.679688 C 211.179688 284.535156 211.542969 284.402344 211.910156 284.277344 C 196.578125 260.582031 165.9375 257.070312 138.675781 253.945312 C 123.816406 252.246094 109.949219 250.65625 99.871094 245.988281 C 99.570312 245.847656 99.332031 245.582031 99.242188 245.234375 L 66.253906 117.570312 L 59.695312 115.761719 L 98.429688 248.34375 C 112.832031 255.0625 128.984375 256.886719 145.039062 258.699219 C 160.371094 260.433594 175.617188 262.15625 189.375 268.101562 C 193.710938 269.976562 197.789062 272.265625 201.480469 275.101562 C 204.960938 277.769531 208.105469 280.929688 210.8125 284.679688 Z M 213.949219 282.425781 L 215.160156 284.132812 C 215.300781 284.335938 215.367188 284.566406 215.367188 284.796875 C 215.367188 285.363281 214.957031 285.835938 214.417969 285.925781 C 213.816406 286.078125 213.222656 286.253906 212.644531 286.449219 C 212.027344 286.65625 211.433594 286.886719 210.859375 287.132812 C 210.347656 287.355469 209.761719 287.175781 209.460938 286.730469 C 206.78125 282.863281 203.617188 279.632812 200.085938 276.921875 C 196.539062 274.199219 192.625 272 188.464844 270.199219 C 175.039062 264.398438 159.957031 262.695312 144.785156 260.980469 C 128.367188 259.128906 111.847656 257.261719 96.988281 250.199219 C 96.660156 250.042969 96.4375 249.753906 96.359375 249.429688 L 56.917969 114.429688 C 56.742188 113.820312 57.09375 113.183594 57.699219 113.007812 C 57.910156 112.945312 58.125 112.949219 58.324219 113.003906 L 67.503906 115.535156 C 67.921875 115.652344 68.222656 115.992188 68.3125 116.390625 L 101.320312 244.128906 C 111.03125 248.46875 124.507812 250.011719 138.933594 251.667969 C 166.292969 254.800781 196.988281 258.320312 213.113281 281.941406 C 213.449219 281.972656 213.753906 282.148438 213.949219 282.425781 " fill-opacity="1" fill-rule="evenodd"/><path fill="#e5d5c8" d="M 207.234375 287.753906 C 180.976562 260.726562 121.878906 268.820312 88.851562 251.171875 L 50.929688 121.292969 L 60.71875 123.347656 L 97.476562 249.160156 C 125.890625 262.664062 160.78125 256.992188 188.921875 269.148438 C 197.421875 272.824219 204.898438 278.128906 210.402344 286.078125 C 210.273438 286.109375 207.367188 287.574219 207.234375 287.753906 " fill-opacity="1" fill-rule="evenodd"/><path fill="#4f1f15" d="M 140.796875 263.273438 C 166.226562 267.128906 191.980469 271.039062 207.414062 286.308594 L 207.832031 286.082031 C 208.101562 285.9375 208.398438 285.789062 208.6875 285.644531 C 206.179688 282.25 203.28125 279.375 200.085938 276.921875 C 196.550781 274.207031 192.636719 272.007812 188.464844 270.207031 L 188.46875 270.199219 C 175.039062 264.398438 159.957031 262.695312 144.785156 260.980469 C 128.367188 259.128906 111.847656 257.261719 96.988281 250.199219 C 96.699219 250.0625 96.46875 249.8125 96.375 249.480469 L 59.8125 124.328125 L 52.566406 122.804688 L 89.816406 250.386719 C 103.640625 257.632812 122.128906 260.4375 140.796875 263.273438 Z M 206.410156 288.550781 C 191.601562 273.304688 165.863281 269.398438 140.457031 265.542969 C 121.410156 262.652344 102.546875 259.789062 88.3125 252.183594 C 88.03125 252.03125 87.839844 251.777344 87.753906 251.492188 L 49.828125 121.613281 C 49.652344 121.003906 50.003906 120.367188 50.609375 120.191406 C 50.796875 120.140625 50.984375 120.132812 51.160156 120.167969 L 60.949219 122.230469 C 61.398438 122.320312 61.730469 122.664062 61.832031 123.078125 L 98.429688 248.34375 C 112.832031 255.0625 128.984375 256.886719 145.039062 258.699219 C 160.371094 260.433594 175.617188 262.15625 189.375 268.101562 L 189.375 268.097656 C 193.703125 269.96875 197.78125 272.261719 201.480469 275.101562 C 205.191406 277.949219 208.519531 281.351562 211.347656 285.429688 C 211.707031 285.949219 211.574219 286.664062 211.054688 287.023438 C 210.925781 287.113281 210.785156 287.171875 210.640625 287.203125 C 210.628906 287.207031 209.710938 287.683594 208.902344 288.113281 C 208.441406 288.355469 208.21875 288.351562 208.152344 288.433594 C 207.777344 288.945312 207.0625 289.050781 206.550781 288.675781 C 206.5 288.636719 206.457031 288.59375 206.410156 288.550781 " fill-opacity="1" fill-rule="evenodd"/><path fill="#e5d5c8" d="M 204.183594 290.085938 L 204.191406 290.085938 C 205.335938 289.03125 206.59375 288.109375 207.929688 287.332031 C 207.550781 287.539062 207.273438 287.699219 207.234375 287.753906 C 180.976562 260.726562 121.878906 268.820312 88.851562 251.171875 L 53.03125 128.5 L 47.550781 127.300781 C 47.550781 127.300781 59.042969 170.980469 82.027344 258.332031 C 101.402344 273.316406 172.527344 262.984375 204.183594 290.085938 " fill-opacity="1" fill-rule="evenodd"/><path fill="#4f1f15" d="M 204.167969 288.578125 C 204.539062 288.269531 204.914062 287.972656 205.304688 287.6875 L 205.4375 287.585938 C 190.488281 273.136719 165.316406 269.316406 140.457031 265.542969 C 121.410156 262.652344 102.546875 259.789062 88.3125 252.183594 C 88.03125 252.03125 87.839844 251.777344 87.753906 251.492188 L 52.125 129.476562 L 49.136719 128.824219 L 83.035156 257.65625 C 91.136719 263.632812 108.355469 265.398438 127.84375 267.390625 C 154.609375 270.132812 185.589844 273.304688 204.167969 288.578125 Z M 204.054688 291.226562 L 204.050781 291.226562 C 203.832031 291.199219 203.617188 291.109375 203.4375 290.957031 C 185.496094 275.597656 154.414062 272.414062 127.609375 269.675781 C 107.5625 267.621094 89.875 265.808594 81.371094 259.273438 C 81.15625 259.121094 80.992188 258.898438 80.917969 258.625 L 46.457031 127.652344 C 46.398438 127.464844 46.382812 127.261719 46.425781 127.058594 C 46.5625 126.441406 47.171875 126.046875 47.792969 126.179688 L 53.273438 127.375 L 53.273438 127.378906 C 53.671875 127.464844 54.011719 127.761719 54.132812 128.179688 L 89.816406 250.386719 C 103.640625 257.632812 122.128906 260.4375 140.796875 263.273438 C 166.226562 267.128906 191.976562 271.039062 207.414062 286.308594 C 207.953125 286.035156 208.617188 286.226562 208.921875 286.757812 C 209.238281 287.304688 209.054688 288.003906 208.503906 288.324219 C 208.300781 288.445312 208.097656 288.566406 207.894531 288.695312 L 207.804688 288.75 C 207.414062 289 207.035156 289.261719 206.660156 289.535156 C 206.085938 289.957031 205.535156 290.410156 205 290.894531 C 204.761719 291.136719 204.417969 291.265625 204.054688 291.226562 " fill-opacity="1" fill-rule="evenodd"/><path fill="#e5d5c8" d="M 205.394531 289.0625 C 205.492188 288.980469 205.59375 288.902344 205.695312 288.824219 C 205.59375 288.902344 205.492188 288.980469 205.394531 289.0625 Z M 200.386719 294.769531 C 175.320312 274.140625 100.875 277.042969 76.949219 262.453125 C 55.242188 174.714844 44.386719 130.847656 44.386719 130.847656 L 48.851562 132.253906 L 82.027344 258.332031 C 101.402344 273.316406 172.527344 262.984375 204.183594 290.085938 L 204.191406 290.085938 C 202.726562 291.425781 201.441406 292.988281 200.386719 294.769531 " fill-opacity="1" fill-rule="evenodd"/><path fill="#4f1f15" d="M 130.578125 274.066406 C 157.253906 277.945312 185.644531 282.078125 200.097656 293.082031 C 200.453125 292.558594 200.828125 292.054688 201.226562 291.566406 C 201.625 291.074219 202.042969 290.601562 202.476562 290.152344 C 184.402344 275.488281 153.941406 272.367188 127.609375 269.675781 C 107.5625 267.621094 89.875 265.808594 81.371094 259.273438 C 81.15625 259.121094 80.992188 258.898438 80.917969 258.625 L 47.90625 133.164062 L 45.988281 132.558594 L 77.945312 261.710938 C 88.5625 267.949219 109.003906 270.925781 130.578125 274.066406 Z M 199.613281 295.617188 C 185.988281 284.445312 157.234375 280.261719 130.253906 276.332031 C 108.164062 273.121094 87.25 270.078125 76.351562 263.429688 C 76.082031 263.265625 75.90625 263.007812 75.835938 262.726562 L 43.273438 131.117188 C 43.121094 130.503906 43.496094 129.886719 44.113281 129.734375 C 44.324219 129.683594 44.539062 129.691406 44.730469 129.753906 L 49.199219 131.160156 C 49.609375 131.292969 49.898438 131.636719 49.980469 132.035156 L 83.035156 257.65625 C 91.136719 263.632812 108.355469 265.398438 127.84375 267.390625 C 154.726562 270.144531 185.859375 273.332031 204.410156 288.777344 C 204.441406 288.554688 204.539062 288.34375 204.695312 288.167969 L 204.6875 288.15625 L 204.996094 287.917969 L 205 287.917969 C 205.5 287.53125 206.21875 287.628906 206.601562 288.128906 C 206.988281 288.628906 206.894531 289.34375 206.394531 289.730469 L 206.398438 289.730469 L 206.097656 289.960938 L 206.089844 289.949219 C 205.855469 290.074219 205.589844 290.113281 205.339844 290.070312 C 205.339844 290.117188 205.335938 290.167969 205.332031 290.21875 C 205.292969 290.523438 205.144531 290.78125 204.929688 290.960938 C 204.242188 291.597656 203.59375 292.28125 203.003906 293.011719 C 202.414062 293.738281 201.871094 294.519531 201.375 295.351562 C 201.054688 295.898438 200.351562 296.082031 199.804688 295.757812 C 199.734375 295.71875 199.671875 295.671875 199.613281 295.617188 " fill-opacity="1" fill-rule="evenodd"/><path fill="#4f1f15" d="M 197.847656 301.3125 L 197.84375 301.316406 C 184.570312 286.8125 102.890625 279.023438 74.597656 269.492188 C 74.597656 269.492188 64.382812 224.472656 41.65625 133.671875 L 45.359375 134.773438 L 76.949219 262.453125 C 100.875 277.042969 175.320312 274.140625 200.386719 294.769531 C 199.246094 296.695312 198.375 298.878906 197.847656 301.3125 " fill-opacity="1" fill-rule="evenodd"/><g clip-path="url(#e19ec4c968)"><path fill="#4f1f15" d="M 122.671875 278.785156 C 153.273438 284.414062 186.632812 290.546875 197.21875 299.171875 C 197.390625 298.597656 197.585938 298.035156 197.800781 297.488281 C 198.128906 296.636719 198.5 295.824219 198.910156 295.054688 C 185.015625 284.300781 156.777344 280.195312 130.253906 276.332031 C 108.179688 273.125 87.28125 270.085938 76.375 263.445312 C 76.117188 263.292969 75.914062 263.042969 75.835938 262.726562 L 44.402344 135.6875 L 43.253906 135.34375 C 64.121094 218.753906 74.273438 262.9375 75.570312 268.605469 C 86.171875 272.074219 103.898438 275.335938 122.671875 278.785156 Z M 198.40625 302.3125 C 197.960938 302.566406 197.382812 302.496094 197.011719 302.105469 L 196.964844 302.050781 C 188.863281 293.289062 154.058594 286.886719 122.257812 281.039062 C 103.035156 277.507812 84.910156 274.171875 74.234375 270.578125 C 73.839844 270.445312 73.566406 270.121094 73.480469 269.742188 C 73.449219 269.609375 63.285156 224.820312 40.542969 133.949219 C 40.386719 133.335938 40.761719 132.710938 41.378906 132.558594 C 41.601562 132.5 41.828125 132.515625 42.03125 132.589844 L 45.679688 133.675781 C 46.085938 133.792969 46.375 134.117188 46.472656 134.496094 L 77.945312 261.710938 C 88.5625 267.949219 109.003906 270.925781 130.578125 274.066406 C 157.894531 278.035156 187.003906 282.273438 201.117188 293.882812 C 201.558594 294.25 201.660156 294.875 201.375 295.351562 C 200.824219 296.285156 200.339844 297.269531 199.9375 298.3125 C 199.542969 299.320312 199.21875 300.402344 198.96875 301.554688 C 198.894531 301.890625 198.683594 302.160156 198.40625 302.3125 " fill-opacity="1" fill-rule="evenodd"/></g><path fill="#e5d5c8" d="M 322.277344 184.503906 L 326.949219 192.769531 C 297.175781 229.285156 239.113281 245.816406 218.667969 284.097656 C 217.023438 284.210938 215.394531 284.480469 213.820312 284.902344 L 213.632812 283.964844 C 247.742188 227.671875 300.570312 224.644531 322.277344 184.503906 " fill-opacity="1" fill-rule="evenodd"/><path fill="#4f1f15" d="M 325.566406 192.648438 L 322.28125 186.84375 C 311.945312 204.699219 295.445312 215.109375 277.328125 226.546875 C 256.414062 239.75 233.3125 254.332031 215.335938 283.378906 C 215.566406 283.335938 215.800781 283.292969 216.03125 283.253906 C 216.671875 283.148438 217.316406 283.0625 217.960938 283.003906 C 229.363281 262.132812 251.679688 247.753906 274.476562 233.070312 C 293.171875 221.027344 312.195312 208.773438 325.566406 192.648438 Z M 323.296875 183.980469 L 327.945312 192.203125 C 328.195312 192.636719 328.125 193.167969 327.816406 193.523438 C 314.1875 210.222656 294.785156 222.71875 275.714844 235.003906 C 252.96875 249.652344 230.699219 263.996094 219.679688 284.636719 C 219.484375 285 219.125 285.214844 218.742188 285.238281 L 218.746094 285.242188 C 217.953125 285.296875 217.167969 285.386719 216.402344 285.515625 C 215.632812 285.644531 214.867188 285.808594 214.109375 286.011719 C 213.5 286.171875 212.871094 285.808594 212.707031 285.195312 L 212.503906 284.183594 C 212.441406 283.859375 212.523438 283.535156 212.707031 283.289062 C 231.0625 253.042969 254.714844 238.109375 276.109375 224.609375 C 294.554688 212.964844 311.296875 202.394531 321.265625 183.960938 C 321.566406 183.402344 322.261719 183.195312 322.820312 183.496094 C 323.03125 183.609375 323.195312 183.78125 323.296875 183.980469 " fill-opacity="1" fill-rule="evenodd"/><path fill="#e5d5c8" d="M 218.664062 284.097656 C 238.769531 246.457031 295.25 229.839844 325.4375 194.582031 L 327.8125 199.472656 C 303.679688 232.78125 241.777344 246.949219 221.273438 284.042969 C 220.402344 284.019531 219.53125 284.039062 218.664062 284.097656 " fill-opacity="1" fill-rule="evenodd"/><path fill="#4f1f15" d="M 275.714844 235 C 256.644531 247.285156 237.914062 259.351562 225.859375 275.089844 C 238.046875 259.519531 257.527344 248.148438 276.832031 236.875 C 296.15625 225.59375 315.300781 214.414062 326.476562 199.351562 L 325.164062 196.640625 C 311.734375 211.800781 293.578125 223.496094 275.714844 235 Z M 217.695312 283.480469 C 229.019531 262.351562 251.503906 247.867188 274.476562 233.070312 C 292.710938 221.324219 311.257812 209.378906 324.566406 193.835938 C 324.976562 193.351562 325.703125 193.300781 326.183594 193.710938 C 326.308594 193.816406 326.402344 193.941406 326.472656 194.082031 L 328.84375 198.976562 C 329.035156 199.371094 328.980469 199.820312 328.738281 200.148438 C 317.339844 215.882812 297.753906 227.316406 277.992188 238.859375 C 255.644531 251.902344 233.0625 265.089844 222.277344 284.59375 C 222.054688 285.007812 221.613281 285.226562 221.175781 285.1875 C 220.777344 285.175781 220.382812 285.175781 219.988281 285.183594 C 219.605469 285.195312 219.1875 285.210938 218.742188 285.242188 C 218.109375 285.285156 217.5625 284.808594 217.519531 284.171875 C 217.503906 283.921875 217.570312 283.683594 217.695312 283.480469 " fill-opacity="1" fill-rule="evenodd"/><path fill="#e5d5c8" d="M 326.210938 201.578125 L 326.214844 201.585938 C 328.046875 204.8125 329.632812 207.617188 329.632812 207.617188 C 304.21875 239.136719 244.449219 249.722656 227.261719 284.902344 C 225.363281 284.402344 223.40625 284.117188 221.457031 284.046875 C 221.742188 283.628906 221.980469 283.160156 222.167969 282.648438 C 222.273438 282.359375 222.484375 282.007812 222.71875 281.59375 C 244.058594 247.078125 301.628906 232.667969 326.210938 201.578125 " fill-opacity="1" fill-rule="evenodd"/><path fill="#4f1f15" d="M 328.246094 207.496094 L 326.039062 203.601562 C 314.394531 217.597656 296.269531 228.183594 277.992188 238.855469 C 256.589844 251.355469 234.96875 263.984375 223.710938 282.160156 L 223.601562 282.355469 C 223.453125 282.621094 223.316406 282.855469 223.253906 283.019531 C 223.691406 283.0625 224.121094 283.117188 224.554688 283.179688 C 225.25 283.28125 225.949219 283.414062 226.644531 283.570312 C 236.421875 264.503906 258.378906 252.703125 280.492188 240.820312 C 298.609375 231.085938 316.835938 221.292969 328.246094 207.496094 Z M 327.214844 201.023438 C 328.382812 202.84375 329.542969 205.132812 330.628906 207.050781 C 330.867188 207.46875 330.8125 207.976562 330.523438 208.335938 L 330.519531 208.335938 C 318.847656 222.8125 300.160156 232.859375 281.578125 242.839844 C 259.472656 254.71875 237.527344 266.511719 228.292969 285.40625 C 228.039062 285.925781 227.445312 286.167969 226.910156 285.996094 C 226.027344 285.765625 225.132812 285.585938 224.222656 285.453125 C 223.277344 285.3125 222.339844 285.226562 221.414062 285.195312 C 220.78125 285.167969 220.289062 284.640625 220.308594 284.007812 C 220.320312 283.78125 220.394531 283.570312 220.511719 283.394531 C 220.621094 283.234375 220.726562 283.058594 220.832031 282.851562 C 220.925781 282.660156 221.015625 282.457031 221.089844 282.253906 C 221.207031 281.929688 221.394531 281.605469 221.613281 281.226562 L 221.722656 281.027344 L 221.777344 280.941406 C 233.34375 262.273438 255.199219 249.507812 276.835938 236.871094 C 295.503906 225.96875 314.007812 215.160156 325.3125 200.871094 C 325.707031 200.371094 326.421875 200.289062 326.921875 200.679688 C 327.042969 200.777344 327.140625 200.894531 327.210938 201.019531 L 327.214844 201.023438 " fill-opacity="1" fill-rule="evenodd"/><path fill="#e5d5c8" d="M 225.582031 284.519531 C 225.699219 284.542969 225.816406 284.566406 225.933594 284.589844 C 225.816406 284.566406 225.699219 284.542969 225.582031 284.519531 Z M 224.726562 284.367188 C 224.851562 284.390625 224.980469 284.410156 225.105469 284.429688 C 224.980469 284.410156 224.851562 284.390625 224.726562 284.367188 Z M 231.203125 286.285156 L 231.199219 286.285156 C 229.925781 285.71875 228.605469 285.257812 227.261719 284.902344 C 244.136719 250.363281 302.050781 239.53125 328.203125 209.316406 L 333.460938 216.902344 C 310.265625 242.960938 254.609375 250.75 231.203125 286.285156 " fill-opacity="1" fill-rule="evenodd"/><g clip-path="url(#9ff591071b)"><path fill="#4f1f15" d="M 229.648438 284.4375 C 230.027344 284.566406 230.40625 284.710938 230.78125 284.863281 C 244.167969 265.167969 267.253906 254.046875 289.097656 243.53125 C 305.878906 235.449219 321.917969 227.726562 332.003906 216.808594 L 328.09375 211.167969 C 316.351562 224.148438 298.917969 233.519531 281.574219 242.839844 C 259.953125 254.460938 238.480469 266 228.914062 284.1875 C 229.160156 284.269531 229.402344 284.351562 229.648438 284.4375 Z M 231.601562 287.359375 C 231.308594 287.46875 231 287.449219 230.734375 287.335938 C 230.128906 287.0625 229.515625 286.820312 228.894531 286.601562 C 228.269531 286.378906 227.625 286.183594 226.972656 286.011719 C 226.695312 285.9375 226.46875 285.773438 226.320312 285.554688 C 226.136719 285.65625 225.925781 285.710938 225.707031 285.703125 L 225.707031 285.710938 L 225.363281 285.644531 L 225.363281 285.632812 C 225.320312 285.613281 225.277344 285.59375 225.234375 285.574219 C 225.128906 285.585938 225.019531 285.582031 224.910156 285.5625 L 224.542969 285.5 C 223.917969 285.398438 223.496094 284.808594 223.597656 284.183594 C 223.695312 283.558594 224.285156 283.132812 224.910156 283.234375 L 225.304688 283.300781 C 225.425781 283.320312 225.539062 283.363281 225.640625 283.414062 C 225.691406 283.410156 225.746094 283.40625 225.796875 283.410156 L 225.800781 283.390625 L 226.164062 283.464844 L 226.160156 283.480469 C 226.3125 283.535156 226.453125 283.625 226.566406 283.734375 C 236.292969 264.570312 258.3125 252.734375 280.492188 240.820312 C 298.136719 231.335938 315.882812 221.800781 327.335938 208.566406 C 327.753906 208.089844 328.472656 208.039062 328.953125 208.449219 C 329.035156 208.523438 329.105469 208.601562 329.160156 208.6875 L 334.40625 216.253906 C 334.710938 216.695312 334.664062 217.28125 334.320312 217.667969 C 323.980469 229.28125 307.429688 237.25 290.09375 245.597656 C 268.230469 256.121094 245.109375 267.253906 232.160156 286.914062 C 232.019531 287.128906 231.824219 287.277344 231.601562 287.359375 " fill-opacity="1" fill-rule="evenodd"/></g><path fill="#4f1f15" d="M 229.398438 285.5625 C 229.242188 285.507812 229.085938 285.453125 228.929688 285.398438 L 228.925781 285.398438 C 229.085938 285.453125 229.242188 285.507812 229.398438 285.5625 Z M 230.242188 285.882812 C 230.042969 285.800781 229.839844 285.722656 229.636719 285.648438 C 229.839844 285.722656 230.042969 285.800781 230.242188 285.882812 Z M 231.070312 286.230469 C 230.851562 286.132812 230.632812 286.039062 230.414062 285.949219 C 230.632812 286.039062 230.851562 286.132812 231.070312 286.230469 Z M 235.738281 288.933594 C 246.570312 275.308594 261.839844 264.550781 281.554688 256.652344 C 312.613281 241.757812 329.851562 231.730469 333.269531 226.582031 L 329.671875 220.746094 C 304.675781 243.820312 253.417969 252.5625 231.203125 286.285156 L 231.199219 286.285156 C 232.792969 287 234.316406 287.878906 235.738281 288.933594 " fill-opacity="1" fill-rule="evenodd"/><g clip-path="url(#486ccb7365)"><path fill="#4f1f15" d="M 255.976562 271.585938 C 248.429688 276.898438 241.984375 282.921875 236.636719 289.648438 C 236.253906 290.125 235.550781 290.222656 235.054688 289.855469 C 234.386719 289.359375 233.695312 288.902344 232.980469 288.488281 C 232.242188 288.058594 231.492188 287.671875 230.734375 287.335938 C 230.691406 287.3125 230.652344 287.292969 230.613281 287.269531 L 230.609375 287.28125 L 230.292969 287.140625 L 229.984375 287.015625 L 229.988281 287 C 229.929688 286.988281 229.871094 286.96875 229.816406 286.945312 L 229.242188 286.726562 L 229.253906 286.699219 C 229.175781 286.6875 229.097656 286.667969 229.023438 286.640625 L 228.558594 286.488281 C 227.960938 286.285156 227.640625 285.632812 227.84375 285.03125 C 228.042969 284.429688 228.695312 284.109375 229.296875 284.3125 L 229.535156 284.394531 C 229.585938 284.414062 229.511719 284.386719 229.664062 284.441406 L 229.785156 284.484375 C 229.867188 284.515625 229.945312 284.554688 230.023438 284.601562 L 230.03125 284.570312 C 230.25 284.652344 230.457031 284.734375 230.667969 284.816406 L 230.777344 284.867188 C 244.164062 265.167969 267.253906 254.046875 289.097656 243.527344 C 304.246094 236.234375 318.792969 229.230469 328.894531 219.902344 C 328.949219 219.855469 329.007812 219.808594 329.070312 219.769531 C 329.609375 219.4375 330.3125 219.605469 330.644531 220.144531 L 334.207031 225.917969 C 334.472656 226.292969 334.496094 226.808594 334.226562 227.210938 C 330.695312 232.539062 313.316406 242.683594 282.109375 257.660156 C 282.066406 257.679688 282.023438 257.703125 281.980469 257.71875 C 272.210938 261.632812 263.542969 266.253906 255.976562 271.585938 Z M 235.519531 287.375 C 240.867188 280.816406 247.25 274.929688 254.660156 269.710938 C 262.363281 264.28125 271.183594 259.578125 281.117188 255.597656 C 310.804688 241.351562 327.726562 231.660156 331.886719 226.519531 L 329.417969 222.519531 C 319.140625 231.605469 304.902344 238.464844 290.089844 245.59375 C 268.636719 255.925781 245.96875 266.84375 232.894531 285.828125 C 233.3125 286.039062 233.722656 286.265625 234.128906 286.5 C 234.597656 286.773438 235.0625 287.066406 235.519531 287.375 " fill-opacity="1" fill-rule="evenodd"/></g><path fill="#4f1f15" d="M 216.222656 284.386719 C 223.492188 283.324219 229.996094 284.839844 235.738281 288.933594 C 235.738281 288.933594 235.667969 290.035156 235.535156 292.238281 C 219.277344 285.09375 205.394531 289.0625 201.488281 302.96875 C 201.488281 302.96875 200.273438 302.417969 197.84375 301.316406 C 200.597656 291.613281 206.722656 285.972656 216.222656 284.386719 " fill-opacity="1" fill-rule="evenodd"/><g clip-path="url(#36fe8c7548)"><path fill="#4f1f15" d="M 226.292969 285.84375 C 223.183594 285.117188 219.882812 285.011719 216.394531 285.515625 C 207.695312 286.976562 201.972656 292.035156 199.226562 300.683594 L 200.777344 301.382812 C 201.007812 300.703125 201.261719 300.046875 201.539062 299.414062 C 203.832031 294.199219 207.703125 290.671875 212.648438 288.90625 C 217.519531 287.167969 223.410156 287.15625 229.828125 288.960938 C 231.351562 289.386719 232.914062 289.921875 234.488281 290.554688 L 234.554688 289.503906 C 231.957031 287.742188 229.203125 286.523438 226.292969 285.84375 Z M 216.058594 283.25 C 219.835938 282.699219 223.417969 282.816406 226.8125 283.609375 C 230.207031 284.402344 233.40625 285.863281 236.402344 288 C 236.734375 288.238281 236.902344 288.621094 236.882812 289 L 236.679688 292.304688 C 236.644531 292.9375 236.101562 293.417969 235.46875 293.382812 C 235.328125 293.375 235.195312 293.339844 235.074219 293.289062 C 233.070312 292.410156 231.109375 291.699219 229.207031 291.167969 C 223.261719 289.5 217.84375 289.488281 213.421875 291.070312 C 209.070312 292.621094 205.660156 295.734375 203.640625 300.335938 L 203.636719 300.339844 C 203.234375 301.261719 202.882812 302.238281 202.59375 303.277344 C 202.421875 303.886719 201.789062 304.242188 201.179688 304.070312 C 201.121094 304.054688 201.070312 304.035156 201.019531 304.011719 L 197.371094 302.363281 C 196.835938 302.121094 196.574219 301.515625 196.746094 300.96875 C 199.640625 290.824219 206.070312 284.917969 216.03125 283.253906 L 216.058594 283.25 " fill-opacity="1" fill-rule="evenodd"/></g><path fill="#4f1f15" d="M 78.765625 123.800781 C 78.398438 123.59375 78.265625 123.125 78.472656 122.757812 C 78.679688 122.390625 79.148438 122.257812 79.515625 122.464844 C 85.515625 125.835938 97.28125 126.292969 110.675781 126.8125 C 131.90625 127.640625 157.175781 128.625 171.03125 141.636719 C 171.339844 141.925781 171.351562 142.410156 171.0625 142.71875 C 170.773438 143.027344 170.289062 143.039062 169.984375 142.75 C 156.542969 130.128906 131.585938 129.15625 110.621094 128.339844 C 97.027344 127.8125 85.082031 127.34375 78.765625 123.800781 " fill-opacity="1" fill-rule="evenodd"/><path fill="#4f1f15" d="M 80.394531 130.601562 C 80.027344 130.394531 79.894531 129.925781 80.101562 129.558594 C 80.308594 129.191406 80.773438 129.058594 81.144531 129.265625 C 87.144531 132.636719 98.910156 133.09375 112.304688 133.613281 C 133.53125 134.441406 158.800781 135.425781 172.65625 148.4375 C 172.964844 148.726562 172.980469 149.210938 172.691406 149.519531 C 172.402344 149.824219 171.917969 149.839844 171.609375 149.550781 C 158.167969 136.929688 133.214844 135.957031 112.25 135.140625 C 98.65625 134.613281 86.710938 134.144531 80.394531 130.601562 " fill-opacity="1" fill-rule="evenodd"/><path fill="#4f1f15" d="M 81.464844 138.554688 C 81.09375 138.359375 80.953125 137.894531 81.148438 137.523438 C 81.347656 137.152344 81.8125 137.011719 82.183594 137.210938 C 88.175781 140.402344 99.941406 140.527344 113.335938 140.664062 C 134.570312 140.882812 159.84375 141.144531 173.703125 153.765625 C 174.015625 154.050781 174.039062 154.535156 173.753906 154.84375 C 173.46875 155.160156 172.984375 155.179688 172.671875 154.894531 C 159.238281 142.667969 134.285156 142.40625 113.324219 142.191406 C 99.730469 142.050781 87.789062 141.925781 81.464844 138.554688 " fill-opacity="1" fill-rule="evenodd"/><path fill="#4f1f15" d="M 82.714844 144.402344 C 82.339844 144.203125 82.203125 143.738281 82.402344 143.367188 C 82.601562 142.996094 83.066406 142.855469 83.4375 143.054688 C 89.4375 146.296875 101.203125 146.511719 114.597656 146.757812 C 135.824219 147.144531 161.101562 147.605469 174.960938 160.335938 C 175.269531 160.621094 175.289062 161.105469 175.003906 161.414062 C 174.71875 161.726562 174.230469 161.746094 173.925781 161.460938 C 160.488281 149.121094 135.535156 148.664062 114.574219 148.285156 C 100.972656 148.035156 89.03125 147.816406 82.714844 144.402344 " fill-opacity="1" fill-rule="evenodd"/><path fill="#4f1f15" d="M 84.949219 151.015625 C 84.578125 150.816406 84.4375 150.351562 84.636719 149.980469 C 84.835938 149.609375 85.300781 149.46875 85.671875 149.671875 C 91.667969 152.910156 103.433594 153.128906 116.828125 153.371094 C 138.0625 153.757812 163.332031 154.21875 177.191406 166.949219 C 177.503906 167.234375 177.523438 167.71875 177.238281 168.03125 C 176.953125 168.339844 176.46875 168.359375 176.15625 168.074219 C 162.722656 155.734375 137.769531 155.28125 116.804688 154.898438 C 103.210938 154.652344 91.265625 154.433594 84.949219 151.015625 " fill-opacity="1" fill-rule="evenodd"/><path fill="#4f1f15" d="M 86.179688 157.050781 C 85.808594 156.851562 85.667969 156.386719 85.867188 156.015625 C 86.070312 155.644531 86.535156 155.503906 86.90625 155.703125 C 92.902344 158.945312 104.671875 159.160156 118.0625 159.40625 C 139.292969 159.792969 164.566406 160.253906 178.425781 172.980469 C 178.738281 173.269531 178.757812 173.753906 178.46875 174.0625 C 178.1875 174.375 177.699219 174.394531 177.390625 174.109375 C 163.953125 161.769531 139.003906 161.3125 118.039062 160.933594 C 104.441406 160.683594 92.5 160.46875 86.179688 157.050781 " fill-opacity="1" fill-rule="evenodd"/><path fill="#4f1f15" d="M 87.929688 163.292969 C 87.558594 163.09375 87.417969 162.628906 87.617188 162.257812 C 87.816406 161.886719 88.28125 161.746094 88.65625 161.945312 C 94.652344 165.191406 106.417969 165.402344 119.8125 165.648438 C 141.042969 166.035156 166.3125 166.496094 180.175781 179.226562 C 180.484375 179.511719 180.503906 179.996094 180.222656 180.304688 C 179.933594 180.617188 179.449219 180.636719 179.140625 180.351562 C 165.703125 168.011719 140.75 167.558594 119.789062 167.175781 C 106.191406 166.925781 94.246094 166.710938 87.929688 163.292969 " fill-opacity="1" fill-rule="evenodd"/><path fill="#4f1f15" d="M 88.773438 167.792969 C 88.390625 167.609375 88.234375 167.152344 88.417969 166.769531 C 88.597656 166.390625 89.054688 166.230469 89.4375 166.414062 C 95.046875 169.117188 106.027344 169.859375 118.761719 170.714844 C 139.863281 172.132812 165.738281 173.878906 180.933594 185.5 C 181.269531 185.753906 181.335938 186.234375 181.078125 186.570312 C 180.824219 186.90625 180.339844 186.972656 180.003906 186.714844 C 165.179688 175.371094 139.554688 173.648438 118.660156 172.242188 C 105.765625 171.375 94.652344 170.625 88.773438 167.792969 " fill-opacity="1" fill-rule="evenodd"/><path fill="#4f1f15" d="M 90.90625 173.292969 C 90.5 173.179688 90.261719 172.757812 90.375 172.351562 C 90.488281 171.941406 90.910156 171.707031 91.320312 171.820312 C 102.660156 175.027344 115.046875 176.320312 127.632812 177.640625 C 146.054688 179.566406 164.894531 181.539062 181.65625 189.585938 C 182.039062 189.769531 182.199219 190.226562 182.015625 190.605469 C 181.835938 190.984375 181.378906 191.148438 181 190.964844 C 164.480469 183.03125 145.769531 181.074219 127.476562 179.160156 C 114.820312 177.835938 102.363281 176.53125 90.90625 173.292969 " fill-opacity="1" fill-rule="evenodd"/><path fill="#4f1f15" d="M 92.523438 178.332031 C 92.136719 178.15625 91.964844 177.703125 92.140625 177.320312 C 92.3125 176.933594 92.765625 176.761719 93.152344 176.933594 C 103.378906 181.585938 118.699219 183.210938 134.335938 184.867188 C 152.203125 186.761719 170.484375 188.703125 182.367188 195.257812 C 182.738281 195.460938 182.871094 195.925781 182.667969 196.296875 C 182.464844 196.667969 182 196.800781 181.628906 196.597656 C 170.011719 190.1875 151.890625 188.265625 134.179688 186.386719 C 118.414062 184.71875 102.96875 183.082031 92.523438 178.332031 " fill-opacity="1" fill-rule="evenodd"/><path fill="#4f1f15" d="M 94.191406 184.433594 C 93.808594 184.261719 93.636719 183.808594 93.808594 183.421875 C 93.984375 183.039062 94.4375 182.867188 94.820312 183.039062 C 105.050781 187.691406 120.371094 189.316406 136.007812 190.972656 C 153.875 192.867188 172.15625 194.804688 184.039062 201.359375 C 184.40625 201.566406 184.542969 202.03125 184.339844 202.402344 C 184.136719 202.769531 183.671875 202.90625 183.304688 202.703125 C 171.683594 196.292969 153.5625 194.371094 135.851562 192.492188 C 120.082031 190.820312 104.640625 189.183594 94.191406 184.433594 " fill-opacity="1" fill-rule="evenodd"/><path fill="#4f1f15" d="M 95.917969 190.5625 C 95.53125 190.394531 95.359375 189.9375 95.53125 189.550781 C 95.707031 189.167969 96.160156 189 96.542969 189.167969 C 106.773438 193.820312 122.09375 195.445312 137.730469 197.105469 C 155.597656 198.996094 173.878906 200.933594 185.765625 207.488281 C 186.132812 207.695312 186.265625 208.160156 186.0625 208.53125 C 185.863281 208.898438 185.394531 209.039062 185.027344 208.832031 C 173.410156 202.421875 155.289062 200.5 137.578125 198.621094 C 121.808594 196.949219 106.363281 195.3125 95.917969 190.5625 " fill-opacity="1" fill-rule="evenodd"/><path fill="#4f1f15" d="M 186.300781 212.074219 C 186.691406 212.226562 186.886719 212.671875 186.734375 213.0625 C 186.578125 213.457031 186.136719 213.652344 185.742188 213.496094 C 172.53125 208.328125 156.378906 206.308594 140.195312 204.28125 C 125.695312 202.46875 111.171875 200.652344 98.632812 196.558594 C 98.234375 196.429688 98.011719 195.996094 98.144531 195.59375 C 98.269531 195.195312 98.707031 194.976562 99.105469 195.105469 C 111.5 199.148438 125.949219 200.957031 140.378906 202.761719 C 156.65625 204.800781 172.90625 206.832031 186.300781 212.074219 " fill-opacity="1" fill-rule="evenodd"/><path fill="#4f1f15" d="M 100.367188 202.308594 C 99.960938 202.183594 99.738281 201.753906 99.863281 201.351562 C 99.988281 200.945312 100.417969 200.722656 100.820312 200.847656 C 110.390625 203.839844 128.476562 206.597656 145.71875 209.230469 C 164.496094 212.097656 182.277344 214.8125 187.253906 217.578125 C 187.621094 217.785156 187.753906 218.246094 187.550781 218.617188 C 187.34375 218.984375 186.878906 219.117188 186.511719 218.914062 C 181.785156 216.289062 164.132812 213.589844 145.492188 210.746094 C 128.195312 208.105469 110.054688 205.339844 100.367188 202.308594 " fill-opacity="1" fill-rule="evenodd"/><path fill="#4f1f15" d="M 101.625 207.867188 C 101.21875 207.75 100.988281 207.328125 101.105469 206.921875 C 101.222656 206.515625 101.644531 206.285156 102.050781 206.402344 C 114.1875 209.957031 128.519531 212.113281 142.648438 214.238281 C 159.925781 216.839844 176.902344 219.390625 189.371094 224.433594 C 189.761719 224.589844 189.949219 225.035156 189.796875 225.425781 C 189.636719 225.816406 189.195312 226.007812 188.800781 225.851562 C 176.511719 220.878906 159.617188 218.335938 142.421875 215.75 C 128.257812 213.625 113.894531 211.460938 101.625 207.867188 " fill-opacity="1" fill-rule="evenodd"/><path fill="#4f1f15" d="M 108.988281 236.375 C 108.605469 236.195312 108.4375 235.738281 108.613281 235.355469 C 108.792969 234.972656 109.246094 234.804688 109.628906 234.984375 C 118.882812 239.273438 133.773438 240.9375 148.722656 242.601562 C 168.046875 244.753906 187.457031 246.917969 195.464844 254.867188 C 195.765625 255.164062 195.765625 255.652344 195.46875 255.949219 C 195.171875 256.246094 194.6875 256.25 194.390625 255.949219 C 186.761719 248.378906 167.613281 246.246094 148.558594 244.121094 C 133.484375 242.441406 118.46875 240.765625 108.988281 236.375 " fill-opacity="1" fill-rule="evenodd"/><path fill="#4f1f15" d="M 107.742188 230.054688 C 107.359375 229.875 107.191406 229.417969 107.371094 229.035156 C 107.546875 228.652344 108 228.484375 108.382812 228.660156 C 117.636719 232.953125 132.53125 234.613281 147.480469 236.277344 C 166.800781 238.433594 186.210938 240.597656 194.222656 248.546875 C 194.519531 248.84375 194.519531 249.328125 194.222656 249.628906 C 193.925781 249.925781 193.441406 249.929688 193.144531 249.628906 C 185.519531 242.058594 166.367188 239.925781 147.3125 237.800781 C 132.238281 236.121094 117.222656 234.445312 107.742188 230.054688 " fill-opacity="1" fill-rule="evenodd"/><path fill="#4f1f15" d="M 106.21875 223.828125 C 105.832031 223.65625 105.660156 223.203125 105.835938 222.816406 C 106.007812 222.433594 106.460938 222.261719 106.847656 222.433594 C 116.101562 226.632812 130.992188 228.144531 145.9375 229.660156 C 165.261719 231.621094 184.675781 233.59375 192.6875 241.464844 C 192.984375 241.757812 192.992188 242.246094 192.695312 242.542969 C 192.398438 242.847656 191.914062 242.847656 191.613281 242.550781 C 183.988281 235.0625 164.84375 233.113281 145.789062 231.179688 C 130.714844 229.652344 115.691406 228.128906 106.21875 223.828125 " fill-opacity="1" fill-rule="evenodd"/><path fill="#4f1f15" d="M 104.757812 218.980469 C 104.371094 218.8125 104.195312 218.363281 104.363281 217.976562 C 104.53125 217.589844 104.980469 217.414062 105.367188 217.582031 C 114.613281 221.644531 129.511719 222.941406 144.460938 224.246094 C 163.785156 225.929688 183.199219 227.625 191.214844 235.386719 C 191.515625 235.679688 191.523438 236.160156 191.230469 236.46875 C 190.933594 236.765625 190.449219 236.777344 190.148438 236.480469 C 182.527344 229.105469 163.382812 227.433594 144.332031 225.773438 C 129.257812 224.457031 114.242188 223.152344 104.757812 218.980469 " fill-opacity="1" fill-rule="evenodd"/><path fill="#4f1f15" d="M 102.839844 213.234375 C 102.457031 213.066406 102.277344 212.617188 102.445312 212.226562 C 102.613281 211.84375 103.066406 211.664062 103.453125 211.832031 C 113.210938 216.121094 128.691406 217.863281 144.207031 219.609375 C 162.402344 221.65625 180.648438 223.710938 190.140625 229.925781 C 190.496094 230.160156 190.59375 230.632812 190.363281 230.988281 C 190.132812 231.339844 189.65625 231.441406 189.304688 231.207031 C 180.113281 225.1875 162.050781 223.15625 144.039062 221.128906 C 128.40625 219.371094 112.8125 217.617188 102.839844 213.234375 " fill-opacity="1" fill-rule="evenodd"/><path fill="#4f1f15" d="M 186.382812 141.578125 C 186.121094 141.910156 185.636719 141.960938 185.308594 141.695312 C 184.984375 141.433594 184.929688 140.949219 185.195312 140.621094 C 195.226562 128.101562 217.015625 117.925781 235.417969 109.335938 C 249.351562 102.828125 261.328125 97.238281 264.480469 92.40625 C 264.710938 92.050781 265.183594 91.953125 265.539062 92.183594 C 265.890625 92.410156 265.992188 92.882812 265.761719 93.238281 C 262.367188 98.4375 250.214844 104.113281 236.0625 110.71875 C 217.808594 119.242188 196.199219 129.332031 186.382812 141.578125 " fill-opacity="1" fill-rule="evenodd"/><path fill="#4f1f15" d="M 188.171875 147.519531 C 187.90625 147.851562 187.425781 147.902344 187.09375 147.636719 C 186.765625 147.371094 186.714844 146.894531 186.980469 146.5625 C 197.015625 134.039062 218.800781 123.867188 237.203125 115.273438 C 251.140625 108.769531 263.113281 103.175781 266.269531 98.347656 C 266.496094 97.992188 266.972656 97.890625 267.324219 98.121094 C 267.675781 98.347656 267.777344 98.824219 267.546875 99.179688 C 264.15625 104.378906 251.996094 110.050781 237.847656 116.660156 C 219.59375 125.179688 197.988281 135.269531 188.171875 147.519531 " fill-opacity="1" fill-rule="evenodd"/><path fill="#4f1f15" d="M 191.230469 153.359375 C 190.964844 153.6875 190.484375 153.742188 190.152344 153.476562 C 189.824219 153.210938 189.773438 152.730469 190.039062 152.402344 C 200.070312 139.878906 221.855469 129.707031 240.261719 121.113281 C 254.199219 114.609375 266.171875 109.015625 269.324219 104.183594 C 269.554688 103.828125 270.027344 103.730469 270.378906 103.960938 C 270.734375 104.1875 270.835938 104.664062 270.605469 105.019531 C 267.214844 110.214844 255.054688 115.890625 240.90625 122.496094 C 222.652344 131.019531 201.042969 141.109375 191.230469 153.359375 " fill-opacity="1" fill-rule="evenodd"/><path fill="#4f1f15" d="M 193.328125 160.710938 C 193.058594 161.039062 192.582031 161.09375 192.253906 160.824219 C 191.921875 160.5625 191.871094 160.082031 192.136719 159.75 C 202.167969 147.226562 223.957031 137.058594 242.359375 128.464844 C 256.296875 121.960938 268.265625 116.367188 271.421875 111.535156 C 271.652344 111.179688 272.125 111.082031 272.476562 111.308594 C 272.832031 111.539062 272.933594 112.011719 272.703125 112.367188 C 269.3125 117.566406 257.15625 123.242188 243.003906 129.847656 C 224.75 138.367188 203.140625 148.457031 193.328125 160.710938 " fill-opacity="1" fill-rule="evenodd"/><path fill="#4f1f15" d="M 195.816406 167.714844 C 195.554688 168.046875 195.074219 168.101562 194.742188 167.84375 C 194.410156 167.578125 194.351562 167.101562 194.613281 166.765625 C 204.640625 154.003906 226.425781 143.308594 244.832031 134.265625 C 258.769531 127.425781 270.742188 121.542969 273.902344 116.625 C 274.128906 116.269531 274.601562 116.164062 274.957031 116.394531 C 275.316406 116.621094 275.417969 117.09375 275.1875 117.453125 C 271.800781 122.722656 259.648438 128.691406 245.5 135.640625 C 227.246094 144.605469 205.632812 155.21875 195.816406 167.714844 " fill-opacity="1" fill-rule="evenodd"/><path fill="#4f1f15" d="M 197.152344 175.285156 C 196.886719 175.617188 196.40625 175.667969 196.078125 175.402344 C 195.746094 175.136719 195.695312 174.65625 195.960938 174.328125 C 206.179688 161.566406 228.371094 150.867188 247.113281 141.835938 C 261.316406 134.984375 273.523438 129.105469 276.742188 124.1875 C 276.972656 123.828125 277.445312 123.730469 277.800781 123.964844 C 278.152344 124.195312 278.253906 124.667969 278.019531 125.023438 C 274.574219 130.296875 262.191406 136.265625 247.777344 143.210938 C 229.175781 152.175781 207.152344 162.792969 197.152344 175.285156 " fill-opacity="1" fill-rule="evenodd"/><path fill="#4f1f15" d="M 199.355469 181.128906 C 199.085938 181.457031 198.609375 181.507812 198.28125 181.246094 C 197.949219 180.980469 197.898438 180.5 198.164062 180.171875 C 208.378906 167.40625 230.574219 156.710938 249.316406 147.675781 C 263.519531 140.828125 275.726562 134.945312 278.945312 130.027344 C 279.175781 129.671875 279.648438 129.574219 280 129.808594 C 280.355469 130.039062 280.457031 130.511719 280.222656 130.867188 C 276.777344 136.136719 264.394531 142.105469 249.980469 149.054688 C 231.378906 158.019531 209.355469 168.636719 199.355469 181.128906 " fill-opacity="1" fill-rule="evenodd"/><path fill="#4f1f15" d="M 200.542969 189.140625 C 200.277344 189.472656 199.796875 189.523438 199.46875 189.257812 C 199.140625 188.996094 199.085938 188.511719 199.351562 188.183594 C 209.8125 175.203125 232.542969 164.015625 251.742188 154.566406 C 266.296875 147.40625 278.804688 141.25 282.105469 136.25 C 282.339844 135.902344 282.8125 135.804688 283.164062 136.035156 C 283.519531 136.269531 283.613281 136.746094 283.378906 137.097656 C 279.851562 142.4375 267.175781 148.675781 252.417969 155.9375 C 233.359375 165.320312 210.792969 176.421875 200.542969 189.140625 " fill-opacity="1" fill-rule="evenodd"/><path fill="#4f1f15" d="M 202.339844 195.601562 C 202.074219 195.929688 201.59375 195.980469 201.261719 195.71875 C 200.933594 195.453125 200.882812 194.972656 201.148438 194.644531 C 211.609375 181.660156 234.335938 170.476562 253.535156 161.027344 C 268.089844 153.863281 280.597656 147.710938 283.898438 142.710938 C 284.132812 142.359375 284.609375 142.261719 284.957031 142.496094 C 285.3125 142.730469 285.40625 143.203125 285.171875 143.554688 C 281.644531 148.894531 268.96875 155.136719 254.210938 162.398438 C 235.152344 171.777344 212.589844 182.882812 202.339844 195.601562 " fill-opacity="1" fill-rule="evenodd"/><path fill="#4f1f15" d="M 204.230469 202.390625 C 203.964844 202.71875 203.484375 202.769531 203.15625 202.507812 C 202.824219 202.242188 202.773438 201.761719 203.039062 201.433594 C 213.5 188.449219 236.230469 177.261719 255.429688 167.816406 C 269.984375 160.652344 282.488281 154.496094 285.792969 149.5 C 286.027344 149.148438 286.5 149.050781 286.851562 149.285156 C 287.203125 149.519531 287.300781 149.992188 287.066406 150.34375 C 283.535156 155.683594 270.859375 161.925781 256.105469 169.1875 C 237.042969 178.566406 214.480469 189.671875 204.230469 202.390625 " fill-opacity="1" fill-rule="evenodd"/><path fill="#4f1f15" d="M 205.851562 209.867188 C 205.585938 210.191406 205.101562 210.238281 204.777344 209.972656 C 204.449219 209.707031 204.40625 209.222656 204.671875 208.898438 C 215.480469 195.785156 238.953125 184.328125 258.777344 174.652344 C 273.820312 167.308594 286.746094 161 290.15625 155.960938 C 290.394531 155.613281 290.867188 155.523438 291.214844 155.757812 C 291.5625 155.996094 291.65625 156.472656 291.417969 156.816406 C 287.769531 162.203125 274.683594 168.589844 259.445312 176.027344 C 239.753906 185.644531 216.441406 197.023438 205.851562 209.867188 " fill-opacity="1" fill-rule="evenodd"/><path fill="#4f1f15" d="M 208.304688 217.773438 C 208.035156 218.097656 207.558594 218.144531 207.230469 217.875 C 206.90625 217.605469 206.855469 217.125 207.125 216.800781 C 217.933594 203.691406 241.40625 192.234375 261.230469 182.558594 C 276.273438 175.214844 289.195312 168.90625 292.609375 163.867188 C 292.84375 163.515625 293.320312 163.425781 293.667969 163.664062 C 294.015625 163.898438 294.109375 164.375 293.871094 164.722656 C 290.226562 170.105469 277.136719 176.496094 261.902344 183.933594 C 242.207031 193.546875 218.894531 204.929688 208.304688 217.773438 " fill-opacity="1" fill-rule="evenodd"/><path fill="#4f1f15" d="M 210.738281 226 C 210.472656 226.328125 209.992188 226.378906 209.664062 226.109375 C 209.335938 225.84375 209.289062 225.363281 209.554688 225.035156 C 220.351562 211.730469 243.824219 199.828125 263.652344 189.777344 C 278.695312 182.148438 291.621094 175.59375 295.035156 170.484375 C 295.269531 170.136719 295.742188 170.039062 296.09375 170.277344 C 296.445312 170.507812 296.539062 170.984375 296.304688 171.335938 C 292.664062 176.777344 279.574219 183.414062 264.339844 191.140625 C 244.648438 201.125 221.332031 212.945312 210.738281 226 " fill-opacity="1" fill-rule="evenodd"/><path fill="#4f1f15" d="M 212.0625 235.230469 C 211.796875 235.566406 211.320312 235.625 210.988281 235.359375 C 210.65625 235.097656 210.597656 234.621094 210.859375 234.285156 C 221.652344 220.542969 245.117188 207.671875 264.941406 196.800781 C 279.988281 188.546875 292.921875 181.457031 296.34375 176.195312 C 296.574219 175.84375 297.046875 175.742188 297.398438 175.972656 C 297.753906 176.199219 297.855469 176.671875 297.625 177.027344 C 293.992188 182.613281 280.90625 189.789062 265.679688 198.140625 C 245.980469 208.945312 222.664062 221.730469 212.0625 235.230469 " fill-opacity="1" fill-rule="evenodd"/><path fill="#4f1f15" d="M 214.578125 244.46875 C 214.320312 244.804688 213.84375 244.871094 213.507812 244.613281 C 213.171875 244.359375 213.105469 243.878906 213.363281 243.539062 C 224.148438 229.390625 247.613281 215.621094 267.433594 203.992188 C 282.484375 195.15625 295.417969 187.566406 298.847656 182.160156 C 299.074219 181.804688 299.546875 181.699219 299.902344 181.925781 C 300.261719 182.152344 300.367188 182.625 300.144531 182.984375 C 296.515625 188.695312 283.433594 196.375 268.207031 205.308594 C 248.507812 216.867188 225.1875 230.554688 214.578125 244.46875 " fill-opacity="1" fill-rule="evenodd"/><path fill="#4f1f15" d="M 216.988281 253.746094 C 216.738281 254.085938 216.257812 254.160156 215.917969 253.910156 C 215.578125 253.660156 215.503906 253.179688 215.753906 252.839844 C 226.535156 238.152344 249.992188 223.195312 269.8125 210.5625 C 284.867188 200.960938 297.804688 192.714844 301.242188 187.121094 C 301.464844 186.761719 301.9375 186.648438 302.296875 186.871094 C 302.65625 187.089844 302.769531 187.5625 302.546875 187.921875 C 298.929688 193.808594 285.851562 202.144531 270.632812 211.851562 C 250.925781 224.410156 227.601562 239.285156 216.988281 253.746094 " fill-opacity="1" fill-rule="evenodd"/></svg>