<svg xmlns="http://www.w3.org/2000/svg" xmlns:xlink="http://www.w3.org/1999/xlink" width="500" zoomAndPan="magnify" viewBox="0 0 375 374.999991" height="500" preserveAspectRatio="xMidYMid meet" version="1.0"><defs><clipPath id="3f39f93fdb"><path d="M 180 39.734375 L 230 39.734375 L 230 131 L 180 131 Z M 180 39.734375 " clip-rule="nonzero"/></clipPath><clipPath id="1d6b5b94e6"><path d="M 76.382812 179.574219 L 298.335938 179.574219 L 298.335938 335.230469 L 76.382812 335.230469 Z M 76.382812 179.574219 " clip-rule="nonzero"/></clipPath><clipPath id="30d7a3c32f"><path d="M 76.757812 194.53125 L 297.960938 194.53125 L 297.960938 335.230469 L 76.757812 335.230469 Z M 76.757812 194.53125 " clip-rule="nonzero"/></clipPath><clipPath id="598816c564"><path d="M 67.417969 125.363281 L 307.417969 125.363281 L 307.417969 190.417969 L 67.417969 190.417969 Z M 67.417969 125.363281 " clip-rule="nonzero"/></clipPath><clipPath id="b139ca9fb8"><path d="M 163.820312 194.53125 L 210.902344 194.53125 L 210.902344 335.230469 L 163.820312 335.230469 Z M 163.820312 194.53125 " clip-rule="nonzero"/></clipPath><clipPath id="268a1f8624"><path d="M 78 313.425781 L 98.804688 313.425781 L 98.804688 335.230469 L 78 335.230469 Z M 78 313.425781 " clip-rule="nonzero"/></clipPath><clipPath id="825d538e12"><path d="M 274.421875 313.425781 L 296.84375 313.425781 L 296.84375 335.230469 L 274.421875 335.230469 Z M 274.421875 313.425781 " clip-rule="nonzero"/></clipPath></defs><path fill="#d82619" d="M 176.355469 134.34375 C 168.027344 125.488281 157.792969 118.523438 146.460938 114.269531 C 128.214844 107.246094 107.183594 108.039062 89.496094 116.046875 L 81.757812 95.980469 C 100.28125 89.71875 120.636719 89.246094 139.226562 94.988281 C 157.359375 100.515625 173.632812 111.96875 185.167969 126.9375 L 176.355469 134.34375 " fill-opacity="1" fill-rule="nonzero"/><path fill="#d82619" d="M 188.566406 134.972656 L 177.859375 139.199219 C 177.550781 138.378906 177.21875 137.5625 176.890625 136.75 L 177.632812 135.425781 C 177.007812 134.964844 176.382812 134.496094 175.757812 134.042969 C 168.070312 116.1875 156.660156 100.042969 141.285156 88.410156 C 134.757812 83.671875 123.429688 76.550781 114.996094 77.941406 L 113.320312 72.058594 C 112.257812 68.335938 111.945312 64.453125 112.375 60.628906 C 116.484375 60.734375 120.542969 61.828125 124.269531 63.128906 C 147.039062 71.140625 164.085938 90.1875 176.285156 110.265625 C 181.019531 118.121094 185.039062 126.507812 188.566406 134.972656 " fill-opacity="1" fill-rule="nonzero"/><path fill="#f4513b" d="M 176.890625 136.75 L 172 145.46875 C 152.765625 137.519531 120.3125 120.980469 103.339844 101.367188 C 101.515625 99.09375 99.878906 96.785156 98.449219 94.441406 C 98.375 94.316406 98.300781 94.203125 98.226562 94.078125 C 96.15625 90.632812 94.542969 87.121094 93.527344 83.558594 C 92.851562 81.207031 92.347656 79.117188 92.003906 77.234375 C 91.90625 76.640625 91.808594 76.074219 91.734375 75.523438 L 91.734375 75.515625 C 91.609375 74.609375 91.527344 73.761719 91.488281 72.964844 C 91.503906 72.636719 91.535156 72.324219 91.578125 72.019531 C 91.707031 70.992188 91.949219 70.085938 92.292969 69.28125 C 94.191406 64.78125 99.230469 63.425781 105.765625 61.417969 C 107.945312 60.75 110.171875 60.5625 112.375 60.628906 C 112.28125 61.433594 112.226562 62.230469 112.203125 63.035156 C 112.175781 63.972656 112.191406 64.90625 112.25 65.84375 C 112.332031 67.09375 112.488281 68.335938 112.726562 69.566406 C 112.882812 70.40625 113.082031 71.238281 113.320312 72.058594 L 114.996094 77.941406 C 115.480469 79.132812 115.910156 80.300781 116.769531 81.878906 C 117.386719 82.941406 118.054688 83.980469 118.761719 84.980469 C 119.871094 86.578125 121.070312 88.109375 122.363281 89.613281 C 122.535156 89.828125 122.722656 90.039062 122.902344 90.253906 C 124.324219 91.898438 125.84375 93.511719 127.40625 95.121094 C 136.328125 104.136719 146.246094 112.023438 156.5 119.804688 C 162.796875 124.617188 169.289062 129.257812 175.757812 134.042969 C 176.152344 134.9375 176.519531 135.84375 176.890625 136.75 " fill-opacity="1" fill-rule="nonzero"/><path fill="#d82619" d="M 183.089844 127.429688 L 192.785156 133.363281 C 193.242188 132.628906 193.707031 131.910156 194.175781 131.1875 L 193.691406 129.792969 C 194.386719 129.460938 195.082031 129.125 195.773438 128.800781 C 206.496094 113.078125 220.550781 99.648438 237.675781 91.238281 C 244.90625 87.859375 257.257812 83.042969 265.25 85.859375 L 267.945312 80.53125 C 269.652344 77.15625 270.65625 73.5 270.929688 69.765625 C 266.890625 69.144531 262.726562 69.472656 258.855469 70.058594 C 235.160156 73.707031 215.070312 88.917969 199.539062 105.96875 C 193.496094 112.644531 188.058594 119.960938 183.089844 127.429688 " fill-opacity="1" fill-rule="nonzero"/><path fill="#f4513b" d="M 284.183594 95.597656 C 283.058594 97.3125 281.75 99 280.285156 100.644531 C 262.402344 120.785156 221.144531 135.457031 197.386719 140.394531 L 194.175781 131.191406 C 194.703125 130.386719 195.222656 129.589844 195.769531 128.800781 C 202.957031 125.363281 210.136719 122.074219 217.160156 118.582031 C 228.574219 112.949219 239.683594 107.15625 250.027344 100.101562 C 252.753906 98.199219 255.371094 96.292969 257.777344 94.222656 C 259.570312 92.699219 261.257812 91.070312 262.800781 89.3125 C 263.933594 87.957031 264.558594 86.914062 265.25 85.859375 L 267.945312 80.535156 C 269.652344 77.152344 270.65625 73.496094 270.925781 69.765625 C 273.089844 70.089844 282.851562 74.226562 284.78125 75.378906 C 292.195312 79.816406 289.640625 87.285156 284.183594 95.597656 " fill-opacity="1" fill-rule="nonzero"/><g clip-path="url(#3f39f93fdb)"><path fill="#f4513b" d="M 180.277344 127.871094 C 188.65625 120.417969 200.007812 106.722656 204.339844 96.753906 C 211.351562 80.941406 211.550781 62.84375 205.144531 47.839844 L 227.496094 39.742188 C 231.773438 56.371094 230.578125 74.519531 223.796875 90.960938 C 217.324219 106.84375 205.582031 121.035156 191.0625 130.90625 L 185.628906 129.375 L 180.277344 127.871094 " fill-opacity="1" fill-rule="nonzero"/></g><g clip-path="url(#1d6b5b94e6)"><path fill="#249351" d="M 298.09375 179.628906 L 297.988281 190.207031 L 297.953125 194.671875 L 297.671875 224.515625 L 297.457031 247.125 L 296.964844 298.582031 L 296.75 321.191406 L 296.429688 335.230469 L 78.402344 335.230469 L 78.070312 319.929688 L 77.863281 297.738281 L 77.382812 247.257812 L 77.167969 225.070312 L 76.886719 194.671875 L 76.84375 190.207031 L 76.746094 179.628906 L 298.09375 179.628906 " fill-opacity="1" fill-rule="nonzero"/></g><g clip-path="url(#30d7a3c32f)"><path fill="#2eaa60" d="M 297.957031 194.675781 L 297.941406 195.902344 L 297.925781 198.0625 L 297.867188 204.207031 L 297.828125 207.414062 L 297.671875 224.523438 L 297.539062 238.5625 L 297.460938 247.128906 L 297.097656 284.992188 L 297.074219 287.226562 L 297.074219 287.234375 L 296.96875 297.503906 L 296.960938 298.585938 L 296.933594 301.421875 L 296.847656 311.324219 L 296.820312 313.679688 L 296.820312 313.726562 L 296.746094 321.199219 L 296.429688 335.230469 L 78.398438 335.230469 L 78.070312 319.929688 L 78.015625 313.597656 L 77.859375 297.742188 L 77.507812 260.128906 L 77.382812 247.257812 L 77.3125 239.175781 L 77.300781 238.710938 L 77.171875 225.070312 L 76.917969 197.890625 L 76.886719 194.675781 L 297.957031 194.675781 " fill-opacity="1" fill-rule="nonzero"/></g><g clip-path="url(#598816c564)"><path fill="#2eaa60" d="M 307.425781 125.589844 L 307.425781 190.210938 L 67.417969 190.210938 L 67.417969 125.589844 L 307.425781 125.589844 " fill-opacity="1" fill-rule="nonzero"/></g><path fill="#d82619" d="M 210.898438 190.207031 L 210.898438 194.675781 L 163.933594 194.675781 L 163.933594 190.207031 L 210.898438 190.207031 " fill-opacity="1" fill-rule="nonzero"/><g clip-path="url(#b139ca9fb8)"><path fill="#f4513b" d="M 210.898438 194.675781 L 210.578125 335.230469 L 164.257812 335.230469 L 163.9375 194.675781 L 210.898438 194.675781 " fill-opacity="1" fill-rule="nonzero"/></g><path fill="#f4513b" d="M 212.910156 190.210938 L 161.925781 190.210938 L 161.925781 125.585938 L 212.910156 125.585938 L 212.910156 190.210938 " fill-opacity="1" fill-rule="nonzero"/><g clip-path="url(#268a1f8624)"><path fill="#74d199" d="M 98.667969 334.035156 C 98.667969 334.4375 98.660156 334.839844 98.636719 335.230469 L 78.398438 335.230469 L 78.070312 319.929688 L 78.015625 313.597656 C 78.085938 313.589844 78.160156 313.589844 78.234375 313.589844 C 89.519531 313.589844 98.667969 322.746094 98.667969 334.035156 " fill-opacity="1" fill-rule="nonzero"/></g><path fill="#74d199" d="M 154.789062 277.875 C 154.789062 289.167969 145.640625 298.324219 134.355469 298.324219 C 123.074219 298.324219 113.921875 289.167969 113.921875 277.875 C 113.921875 266.585938 123.074219 257.429688 134.355469 257.429688 C 145.640625 257.429688 154.789062 266.585938 154.789062 277.875 " fill-opacity="1" fill-rule="nonzero"/><path fill="#74d199" d="M 98.667969 218.289062 C 98.667969 229.578125 89.519531 238.734375 78.234375 238.734375 C 77.925781 238.734375 77.613281 238.726562 77.300781 238.710938 L 77.171875 225.070312 L 76.917969 197.890625 C 77.351562 197.855469 77.792969 197.839844 78.234375 197.839844 C 89.519531 197.839844 98.667969 206.996094 98.667969 218.289062 " fill-opacity="1" fill-rule="nonzero"/><path fill="#74d199" d="M 154.789062 162.128906 C 154.789062 173.421875 145.640625 182.574219 134.355469 182.574219 C 123.074219 182.574219 113.921875 173.421875 113.921875 162.128906 C 113.921875 150.835938 123.074219 141.683594 134.355469 141.683594 C 145.640625 141.683594 154.789062 150.835938 154.789062 162.128906 " fill-opacity="1" fill-rule="nonzero"/><path fill="#74d199" d="M 264.605469 277.875 C 264.605469 289.167969 255.457031 298.324219 244.171875 298.324219 C 232.886719 298.324219 223.738281 289.167969 223.738281 277.875 C 223.738281 266.585938 232.886719 257.429688 244.171875 257.429688 C 255.457031 257.429688 264.605469 266.585938 264.605469 277.875 " fill-opacity="1" fill-rule="nonzero"/><path fill="#74d199" d="M 264.605469 162.128906 C 264.605469 173.421875 255.457031 182.574219 244.171875 182.574219 C 232.886719 182.574219 223.738281 173.421875 223.738281 162.128906 C 223.738281 150.835938 232.886719 141.683594 244.171875 141.683594 C 255.457031 141.683594 264.605469 150.835938 264.605469 162.128906 " fill-opacity="1" fill-rule="nonzero"/><g clip-path="url(#825d538e12)"><path fill="#74d199" d="M 296.820312 313.679688 L 296.820312 313.726562 L 296.746094 321.199219 L 296.429688 335.230469 L 274.539062 335.230469 C 274.515625 334.839844 274.503906 334.4375 274.503906 334.035156 C 274.503906 322.746094 283.65625 313.589844 294.941406 313.589844 C 295.578125 313.589844 296.207031 313.621094 296.820312 313.679688 " fill-opacity="1" fill-rule="nonzero"/></g><path fill="#74d199" d="M 297.925781 198.0625 L 297.867188 204.207031 L 297.828125 207.414062 L 297.671875 224.523438 L 297.539062 238.5625 C 296.691406 238.675781 295.824219 238.734375 294.941406 238.734375 C 283.65625 238.734375 274.503906 229.578125 274.503906 218.289062 C 274.503906 206.996094 283.65625 197.839844 294.941406 197.839844 C 295.953125 197.839844 296.953125 197.914062 297.925781 198.0625 " fill-opacity="1" fill-rule="nonzero"/></svg>